REM DIRINDEX 1\2\3,1\2\4,1\2\5,1\2\6
REM DIRNAME folder01,folder02,folder03,folder04,folder05,folder06
TITLE ""
FILE "060 060.mp3" MP3
  TRACK 01 AUDIO
    TITLE "0:"
    INDEX 01 00:00:00
  TRACK 02 AUDIO
    TITLE "3:cjc157_2209"
    INDEX 01 00:00:09
  TRACK 03 AUDIO
    TITLE "0:"
    INDEX 01 00:00:70
  TRACK 04 AUDIO
    TITLE "4:cjc157_2210"
    INDEX 01 00:01:38
  TRACK 05 AUDIO
    TITLE "0:"
    INDEX 01 00:02:42
  TRACK 06 AUDIO
    TITLE "5:cjc157_2211"
    INDEX 01 00:03:15
  TRACK 07 AUDIO
    TITLE "0:"
    INDEX 01 00:04:66
  TRACK 08 AUDIO
    TITLE "5:cjc157_2212"
    INDEX 01 00:05:40
  TRACK 09 AUDIO
    TITLE "0:"
    INDEX 01 00:09:00
  TRACK 10 AUDIO
    TITLE "5:cjc157_2213"
    INDEX 01 00:09:44
  TRACK 11 AUDIO
    TITLE "0:"
    INDEX 01 00:11:70
  TRACK 12 AUDIO
    TITLE "5:cjc157_2214"
    INDEX 01 00:12:40
  TRACK 13 AUDIO
    TITLE "0:"
    INDEX 01 00:15:27
  TRACK 14 AUDIO
    TITLE "3:cjc157_2215"
    INDEX 01 00:15:70
  TRACK 15 AUDIO
    TITLE "0:"
    INDEX 01 00:16:73
  TRACK 16 AUDIO
    TITLE "4:cjc157_2216"
    INDEX 01 00:17:43
  TRACK 17 AUDIO
    TITLE "0:"
    INDEX 01 00:18:56
  TRACK 18 AUDIO
    TITLE "5:cjc157_2217"
    INDEX 01 00:19:28
  TRACK 19 AUDIO
    TITLE "0:"
    INDEX 01 00:21:35
  TRACK 20 AUDIO
    TITLE "5:cjc157_2218"
    INDEX 01 00:22:11
  TRACK 21 AUDIO
    TITLE "0:"
    INDEX 01 00:24:33
  TRACK 22 AUDIO
    TITLE "5:cjc157_2219"
    INDEX 01 00:25:07
  TRACK 23 AUDIO
    TITLE "0:"
    INDEX 01 00:28:33
  TRACK 24 AUDIO
    TITLE "3:cjc157_2220"
    INDEX 01 00:29:03
  TRACK 25 AUDIO
    TITLE "0:"
    INDEX 01 00:30:05
  TRACK 26 AUDIO
    TITLE "4:cjc157_2221"
    INDEX 01 00:30:54
  TRACK 27 AUDIO
    TITLE "0:"
    INDEX 01 00:31:69
  TRACK 28 AUDIO
    TITLE "5:cjc157_2222"
    INDEX 01 00:32:37
  TRACK 29 AUDIO
    TITLE "0:"
    INDEX 01 00:34:10
  TRACK 30 AUDIO
    TITLE "3:cjc157_2223"
    INDEX 01 00:34:57
  TRACK 31 AUDIO
    TITLE "0:"
    INDEX 01 00:35:70
  TRACK 32 AUDIO
    TITLE "4:cjc157_2224"
    INDEX 01 00:36:40
  TRACK 33 AUDIO
    TITLE "0:"
    INDEX 01 00:37:40
  TRACK 34 AUDIO
    TITLE "5:cjc157_2225"
    INDEX 01 00:38:06
  TRACK 35 AUDIO
    TITLE "0:"
    INDEX 01 00:39:39
  TRACK 36 AUDIO
    TITLE "5:cjc157_2226"
    INDEX 01 00:40:07
  TRACK 37 AUDIO
    TITLE "0:"
    INDEX 01 00:42:49
  TRACK 38 AUDIO
    TITLE "3:cjc157_2227"
    INDEX 01 00:43:23
  TRACK 39 AUDIO
    TITLE "0:"
    INDEX 01 00:44:48
  TRACK 40 AUDIO
    TITLE "4:cjc157_2228"
    INDEX 01 00:45:20
  TRACK 41 AUDIO
    TITLE "0:"
    INDEX 01 00:46:56
  TRACK 42 AUDIO
    TITLE "5:cjc157_2229"
    INDEX 01 00:47:36
  TRACK 43 AUDIO
    TITLE "0:"
    INDEX 01 00:50:03
  TRACK 44 AUDIO
    TITLE "5:cjc157_2230"
    INDEX 01 00:50:52
  TRACK 45 AUDIO
    TITLE "0:"
    INDEX 01 00:52:49
  TRACK 46 AUDIO
    TITLE "3:cjc157_2231"
    INDEX 01 00:53:19
  TRACK 47 AUDIO
    TITLE "0:"
    INDEX 01 00:54:34
  TRACK 48 AUDIO
    TITLE "4:cjc157_2232"
    INDEX 01 00:55:04
  TRACK 49 AUDIO
    TITLE "0:"
    INDEX 01 00:56:24
  TRACK 50 AUDIO
    TITLE "5:cjc157_2233"
    INDEX 01 00:56:69
  TRACK 51 AUDIO
    TITLE "0:"
    INDEX 01 00:59:43
  TRACK 52 AUDIO
    TITLE "5:cjc157_2234"
    INDEX 01 01:00:12
  TRACK 53 AUDIO
    TITLE "0:"
    INDEX 01 01:01:46
  TRACK 54 AUDIO
    TITLE "3:cjc157_2235"
    INDEX 01 01:02:12
  TRACK 55 AUDIO
    TITLE "0:"
    INDEX 01 01:03:24
  TRACK 56 AUDIO
    TITLE "4:cjc157_2236"
    INDEX 01 01:04:00
  TRACK 57 AUDIO
    TITLE "0:"
    INDEX 01 01:05:03
  TRACK 58 AUDIO
    TITLE "5:cjc157_2237"
    INDEX 01 01:05:48
  TRACK 59 AUDIO
    TITLE "0:"
    INDEX 01 01:07:74
  TRACK 60 AUDIO
    TITLE "5:cjc157_2238"
    INDEX 01 01:08:38
  TRACK 61 AUDIO
    TITLE "0:"
    INDEX 01 01:10:41
  TRACK 62 AUDIO
    TITLE "5:cjc157_2239"
    INDEX 01 01:11:13
  TRACK 63 AUDIO
    TITLE "0:"
    INDEX 01 01:13:40
  TRACK 64 AUDIO
    TITLE "3:cjc157_2240"
    INDEX 01 01:14:08
  TRACK 65 AUDIO
    TITLE "0:"
    INDEX 01 01:15:17
  TRACK 66 AUDIO
    TITLE "4:cjc157_2241"
    INDEX 01 01:15:64
  TRACK 67 AUDIO
    TITLE "0:"
    INDEX 01 01:16:67
  TRACK 68 AUDIO
    TITLE "5:cjc157_2242"
    INDEX 01 01:17:33
  TRACK 69 AUDIO
    TITLE "0:"
    INDEX 01 01:19:19
  TRACK 70 AUDIO
    TITLE "5:cjc157_2243"
    INDEX 01 01:19:60
  TRACK 71 AUDIO
    TITLE "0:"
    INDEX 01 01:21:21
  TRACK 72 AUDIO
    TITLE "5:cjc157_2244"
    INDEX 01 01:21:69
  TRACK 73 AUDIO
    TITLE "0:"
    INDEX 01 01:23:26
  TRACK 74 AUDIO
    TITLE "5:cjc157_2245"
    INDEX 01 01:23:69
  TRACK 75 AUDIO
    TITLE "0:"
    INDEX 01 01:24:67
  TRACK 76 AUDIO
    TITLE "3:cjc157_2246"
    INDEX 01 01:25:39
  TRACK 77 AUDIO
    TITLE "0:"
    INDEX 01 01:26:46
  TRACK 78 AUDIO
    TITLE "4:cjc157_2247"
    INDEX 01 01:27:14
  TRACK 79 AUDIO
    TITLE "0:"
    INDEX 01 01:28:20
  TRACK 80 AUDIO
    TITLE "5:cjc157_2248"
    INDEX 01 01:28:63
  TRACK 81 AUDIO
    TITLE "0:"
    INDEX 01 01:32:21
  TRACK 82 AUDIO
    TITLE "5:cjc157_2249"
    INDEX 01 01:32:70
  TRACK 83 AUDIO
    TITLE "0:"
    INDEX 01 01:34:50
  TRACK 84 AUDIO
    TITLE "5:cjc157_2250"
    INDEX 01 01:35:18
  TRACK 85 AUDIO
    TITLE "0:"
    INDEX 01 01:36:58
  TRACK 86 AUDIO
    TITLE "3:cjc157_2251"
    INDEX 01 01:37:30
  TRACK 87 AUDIO
    TITLE "0:"
    INDEX 01 01:38:42
  TRACK 88 AUDIO
    TITLE "4:cjc157_2252"
    INDEX 01 01:39:12
  TRACK 89 AUDIO
    TITLE "0:"
    INDEX 01 01:40:19
  TRACK 90 AUDIO
    TITLE "5:cjc157_2253"
    INDEX 01 01:40:60
  TRACK 91 AUDIO
    TITLE "0:"
    INDEX 01 01:42:65
  TRACK 92 AUDIO
    TITLE "5:cjc157_2254"
    INDEX 01 01:43:35
  TRACK 93 AUDIO
    TITLE "0:"
    INDEX 01 01:45:55
